<?xml version="1.0" encoding="UTF-8"?>
<svg version="1.1" viewBox="0 0 700 700" xmlns="http://www.w3.org/2000/svg">
 <path d="m445.63 442.62 49.496 49.5 74.246-74.25 24.75 24.75-98.996 98.996-74.246-74.246zm-200.63-92.625h175v35h-175zm0-140h210v35h-210zm0 210h105v35h-105zm0-140h140v35h-140zm315 101.55v-259.05l-122.5-122.5h-280.12s-17.383 0-17.383 17.5v525s0 17.5 17.559 17.5h291.88c-13.477-8.9609-24.77-20.957-32.895-35.008l-241.54 0.007812v-490h245v87.5s0 17.5 17.5 17.5h87.5v228.95c12.562 2.1055 24.371 6.4453 35 12.594z" fill-rule="evenodd"/>
</svg>
